{
  "source": "C:\\Users\\Peter\\Desktop\\stuff\\MIUN\\quantitative_research\\video_compression\\videos\\BVI-HD\\BVI-HD_CDVL_videos\\ORIG\\FishAndRock_1920x1080_30fps.mp4",
  "output": "C:\\Users\\Peter\\Desktop\\stuff\\MIUN\\quantitative_research\\video_compression\\compressed_videos\\BVI-HD\\vp9\\8\\FishAndRock_1920x1080_30fps_vp9.webm",
  "codec": "vp9",
  "ok": "Input #0, mov,mp4,m4a,3gp,3g2,mj2, from 'C:\\Users\\Peter\\Desktop\\stuff\\MIUN\\quantitative_research\\video_compression\\videos\\BVI-HD\\BVI-HD_CDVL_videos\\ORIG\\FishAndRock_1920x1080_30fps.mp4':\n  Metadata:\n    major_brand     : isom\n    minor_version   : 512\n    compatible_brands: isomiso2avc1mp41\n    encoder         : Lavf54.28.101\n  Duration: 00:00:05.00, start: 0.000000, bitrate: 251564 kb/s\n  Stream #0:0[0x1](und): Video: h264 (High 4:4:4 Predictive) (avc1 / 0x31637661), yuv420p(progressive), 1920x1080, 251561 kb/s, 30 fps, 30 tbr, 30 tbn (default)\n    Metadata:\n      handler_name    : VideoHandler\n      vendor_id       : [0][0][0][0]\n[out#0/webm @ 000002b2a2f99240] Codec AVOption b:a (set bitrate (in bits/s)) has not been used for any stream. The most likely reason is either wrong type (e.g. a video option with no video streams) or that it is a private option of some decoder which was not actually used for any stream.\nStream mapping:\n  Stream #0:0 -> #0:0 (h264 (native) -> vp9 (libvpx-vp9))\nPress [q] to stop, [?] for help\n[libvpx-vp9 @ 000002b2a3a404c0] v1.15.2-100-g40561f514\nOutput #0, webm, to 'C:\\Users\\Peter\\Desktop\\stuff\\MIUN\\quantitative_research\\video_compression\\compressed_videos\\BVI-HD\\vp9\\8\\FishAndRock_1920x1080_30fps_vp9.webm':\n  Metadata:\n    major_brand     : isom\n    minor_version   : 512\n    compatible_brands: isomiso2avc1mp41\n    encoder         : Lavf62.3.100\n  Stream #0:0(und): Video: vp9, yuv420p(tv, progressive), 1920x1080, q=2-31, 8000 kb/s, 30 fps, 1k tbn (default)\n    Metadata:\n      encoder         : Lavc62.11.100 libvpx-vp9\n      handler_name    : VideoHandler\n      vendor_id       : [0][0][0][0]\n    Side data:\n      cpb: bitrate max/min/avg: 0/0/0 buffer size: 8000000 vbv_delay: N/A\nframe=    0 fps=0.0 q=0.0 size=       0KiB time=N/A bitrate=N/A speed=N/A elapsed=0:00:00.52    \nframe=    3 fps=2.6 q=45.0 size=       1KiB time=00:00:00.10 bitrate=  50.7kbits/s speed=0.087x elapsed=0:00:01.14    \nframe=    8 fps=4.8 q=30.0 size=       1KiB time=00:00:00.26 bitrate=  19.0kbits/s speed=0.16x elapsed=0:00:01.66    \nframe=   12 fps=5.5 q=30.0 size=       1KiB time=00:00:00.40 bitrate=  12.7kbits/s speed=0.184x elapsed=0:00:02.17    \nframe=   15 fps=5.5 q=29.0 size=       1KiB time=00:00:00.50 bitrate=  10.1kbits/s speed=0.185x elapsed=0:00:02.70    \nframe=   19 fps=5.9 q=28.0 size=       1KiB time=00:00:00.63 bitrate=   8.0kbits/s speed=0.197x elapsed=0:00:03.21    \nframe=   22 fps=5.9 q=29.0 size=       1KiB time=00:00:00.73 bitrate=   6.9kbits/s speed=0.196x elapsed=0:00:03.73    \nframe=   26 fps=6.1 q=26.0 size=       1KiB time=00:00:00.86 bitrate=   5.9kbits/s speed=0.204x elapsed=0:00:04.25    \nframe=   30 fps=6.3 q=26.0 size=       1KiB time=00:00:01.00 bitrate=   5.1kbits/s speed=0.209x elapsed=0:00:04.79    \nframe=   33 fps=6.2 q=22.0 size=       1KiB time=00:00:01.10 bitrate=   4.6kbits/s speed=0.207x elapsed=0:00:05.32    \nframe=   37 fps=6.3 q=25.0 size=       1KiB time=00:00:01.23 bitrate=   4.1kbits/s speed=0.211x elapsed=0:00:05.84    \nframe=   40 fps=6.3 q=26.0 size=       1KiB time=00:00:01.33 bitrate=   3.8kbits/s speed=0.209x elapsed=0:00:06.39    \nframe=   44 fps=6.3 q=24.0 size=       1KiB time=00:00:01.46 bitrate=   3.5kbits/s speed=0.211x elapsed=0:00:06.93    \nframe=   47 fps=6.3 q=25.0 size=       1KiB time=00:00:01.56 bitrate=   3.2kbits/s speed=0.21x elapsed=0:00:07.46    \nframe=   50 fps=6.3 q=24.0 size=       1KiB time=00:00:01.66 bitrate=   3.0kbits/s speed=0.209x elapsed=0:00:07.99    \nframe=   54 fps=6.3 q=24.0 size=       1KiB time=00:00:01.80 bitrate=   2.8kbits/s speed=0.211x elapsed=0:00:08.51    \nframe=   57 fps=6.3 q=22.0 size=       1KiB time=00:00:01.90 bitrate=   2.7kbits/s speed=0.21x elapsed=0:00:09.04    \nframe=   60 fps=6.3 q=25.0 size=       1KiB time=00:00:02.00 bitrate=   2.5kbits/s speed=0.208x elapsed=0:00:09.59    \nframe=   63 fps=6.2 q=21.0 size=       1KiB time=00:00:02.10 bitrate=   2.4kbits/s speed=0.207x elapsed=0:00:10.12    \nframe=   66 fps=6.2 q=25.0 size=       1KiB time=00:00:02.20 bitrate=   2.3kbits/s speed=0.206x elapsed=0:00:10.65    \nframe=   69 fps=6.2 q=24.0 size=       1KiB time=00:00:02.30 bitrate=   2.2kbits/s speed=0.205x elapsed=0:00:11.19    \nframe=   70 fps=6.0 q=23.0 size=       1KiB time=00:00:02.33 bitrate=   2.2kbits/s speed=0.198x elapsed=0:00:11.76    \nframe=   72 fps=5.8 q=22.0 size=       1KiB time=00:00:02.40 bitrate=   2.1kbits/s speed=0.194x elapsed=0:00:12.34    \nframe=   73 fps=5.6 q=17.0 size=       1KiB time=00:00:02.43 bitrate=   2.1kbits/s speed=0.188x elapsed=0:00:12.92    \nframe=   75 fps=5.6 q=22.0 size=       1KiB time=00:00:02.50 bitrate=   2.0kbits/s speed=0.186x elapsed=0:00:13.44    \nframe=   77 fps=5.5 q=24.0 size=       1KiB time=00:00:02.56 bitrate=   2.0kbits/s speed=0.184x elapsed=0:00:13.96    \nframe=   80 fps=5.5 q=24.0 size=       1KiB time=00:00:02.66 bitrate=   1.9kbits/s speed=0.184x elapsed=0:00:14.49    \nframe=   82 fps=5.4 q=23.0 size=       1KiB time=00:00:02.73 bitrate=   1.9kbits/s speed=0.182x elapsed=0:00:15.05    \nframe=   84 fps=5.4 q=24.0 size=       1KiB time=00:00:02.80 bitrate=   1.8kbits/s speed=0.179x elapsed=0:00:15.62    \nframe=   87 fps=5.4 q=24.0 size=       1KiB time=00:00:02.86 bitrate=   1.8kbits/s speed=0.177x elapsed=0:00:16.15    \nframe=   89 fps=5.3 q=25.0 size=       1KiB time=00:00:02.96 bitrate=   1.7kbits/s speed=0.177x elapsed=0:00:16.72    \nframe=   91 fps=5.3 q=14.0 size=       1KiB time=00:00:03.00 bitrate=   1.7kbits/s speed=0.174x elapsed=0:00:17.23    \nframe=   93 fps=5.2 q=25.0 size=       1KiB time=00:00:03.10 bitrate=   1.6kbits/s speed=0.174x elapsed=0:00:17.83    \nframe=   95 fps=5.2 q=25.0 size=       1KiB time=00:00:03.16 bitrate=   1.6kbits/s speed=0.172x elapsed=0:00:18.37    \nframe=   97 fps=5.1 q=14.0 size=       1KiB time=00:00:03.23 bitrate=   1.6kbits/s speed=0.171x elapsed=0:00:18.90    \nframe=  100 fps=5.2 q=24.0 size=       1KiB time=00:00:03.33 bitrate=   1.5kbits/s speed=0.172x elapsed=0:00:19.40    \nframe=  102 fps=5.1 q=25.0 size=       1KiB time=00:00:03.40 bitrate=   1.5kbits/s speed=0.17x elapsed=0:00:19.98    \nframe=  104 fps=5.0 q=25.0 size=       1KiB time=00:00:03.46 bitrate=   1.5kbits/s speed=0.168x elapsed=0:00:20.59    \nframe=  106 fps=5.0 q=24.0 size=       1KiB time=00:00:03.53 bitrate=   1.4kbits/s speed=0.167x elapsed=0:00:21.13    \nframe=  108 fps=5.0 q=27.0 size=       1KiB time=00:00:03.60 bitrate=   1.4kbits/s speed=0.166x elapsed=0:00:21.67    \nframe=  111 fps=5.0 q=23.0 size=       1KiB time=00:00:03.70 bitrate=   1.4kbits/s speed=0.167x elapsed=0:00:22.19    \nframe=  113 fps=5.0 q=25.0 size=       1KiB time=00:00:03.76 bitrate=   1.3kbits/s speed=0.165x elapsed=0:00:22.76    \nframe=  114 fps=4.9 q=25.0 size=       1KiB time=00:00:03.80 bitrate=   1.3kbits/s speed=0.163x elapsed=0:00:23.32    \nframe=  116 fps=4.9 q=25.0 size=       1KiB time=00:00:03.86 bitrate=   1.3kbits/s speed=0.162x elapsed=0:00:23.84    \nframe=  119 fps=4.9 q=25.0 size=       1KiB time=00:00:03.96 bitrate=   1.3kbits/s speed=0.163x elapsed=0:00:24.38    \nframe=  120 fps=4.8 q=26.0 size=       1KiB time=00:00:04.00 bitrate=   1.3kbits/s speed=0.161x elapsed=0:00:24.89    \nframe=  123 fps=4.8 q=26.0 size=       1KiB time=00:00:04.10 bitrate=   1.2kbits/s speed=0.161x elapsed=0:00:25.43    \nframe=  125 fps=4.8 q=26.0 size=       1KiB time=00:00:04.16 bitrate=   1.2kbits/s speed=0.16x elapsed=0:00:26.01    \nframe=  126 fps=4.7 q=26.0 size=       1KiB time=00:00:04.20 bitrate=   1.2kbits/s speed=0.158x elapsed=0:00:26.60    \nframe=  126 fps=4.6 q=26.0 size=       1KiB time=00:00:04.20 bitrate=   1.2kbits/s speed=0.155x elapsed=0:00:27.13    \nframe=  126 fps=4.6 q=26.0 size=       1KiB time=00:00:04.20 bitrate=   1.2kbits/s speed=0.152x elapsed=0:00:27.65    \nframe=  126 fps=4.5 q=26.0 size=       1KiB time=00:00:04.20 bitrate=   1.2kbits/s speed=0.149x elapsed=0:00:28.19    \nframe=  126 fps=4.4 q=26.0 size=       1KiB time=00:00:04.20 bitrate=   1.2kbits/s speed=0.146x elapsed=0:00:28.77    \nframe=  126 fps=4.3 q=26.0 size=       1KiB time=00:00:04.20 bitrate=   1.2kbits/s speed=0.143x elapsed=0:00:29.29    \nframe=  126 fps=4.2 q=26.0 size=       1KiB time=00:00:04.20 bitrate=   1.2kbits/s speed=0.141x elapsed=0:00:29.82    \nframe=  126 fps=4.1 q=26.0 size=       1KiB time=00:00:04.20 bitrate=   1.2kbits/s speed=0.138x elapsed=0:00:30.37    \nframe=  126 fps=4.1 q=26.0 size=       1KiB time=00:00:04.20 bitrate=   1.2kbits/s speed=0.136x elapsed=0:00:30.93    \nframe=  126 fps=4.0 q=26.0 size=       1KiB time=00:00:04.20 bitrate=   1.2kbits/s speed=0.133x elapsed=0:00:31.47    \n[out#0/webm @ 000002b2a2f99240] video:4983KiB audio:0KiB subtitle:0KiB other streams:0KiB global headers:0KiB muxing overhead: 0.036549%\nframe=  150 fps=4.7 q=26.0 Lsize=    4985KiB time=00:00:05.00 bitrate=8167.5kbits/s speed=0.158x elapsed=0:00:31.74    \n",
  "seconds": 32.0188672542572,
  "probe_out": {}
}